<svg width="166" height="105" viewBox="0 0 166 105" fill="none" xmlns="http://www.w3.org/2000/svg">
<path d="M37.4915 0.276238C29.9172 1.04769 21.0105 3.01138 14.2077 5.46599C9.50887 7.14915 1.8645 10.796 1.8645 11.2869C1.8645 11.5675 4.7399 16.7572 5.37109 17.4585C5.37109 17.5287 7.19452 16.7572 9.29847 15.7754C16.0311 12.6194 24.3768 10.0246 32.3017 8.69205C37.3512 7.85047 47.5203 7.49981 52.7101 8.06087C62.8792 9.11285 72.6976 12.2688 82.0953 17.4585C95.4203 24.8925 106.992 28.2588 120.738 28.8199C134.273 29.3108 148.791 26.225 161.344 20.1235C163.518 19.0716 165.412 18.0897 165.692 17.8793C166.043 17.6689 165.762 16.9676 164.29 14.513C163.308 12.8298 162.396 11.4272 162.326 11.3571C162.326 11.2869 160.713 11.9882 158.89 12.9C151.315 16.5468 144.092 18.791 135.045 20.3339C129.995 21.1755 116.67 21.1755 111.971 20.3339C103.415 18.791 97.2437 16.7572 89.389 12.6896C75.5029 5.60625 70.3131 3.5023 61.8973 1.749C54.7439 0.276237 44.0137 -0.42508 37.4915 0.276238Z" fill="#8C8C8C"/>
<path d="M37.7719 25.5936C28.0937 26.2247 17.7844 28.6794 8.59711 32.5366C5.09052 34.0094 0.672215 36.1835 0.46182 36.6042C0.321556 36.8146 2.77617 41.3732 3.96841 43.0564C3.96841 43.0564 5.30091 42.4252 6.91394 41.6537C15.7505 37.3056 26.5508 34.36 37.0005 33.3782C47.0995 32.4665 56.8478 33.5886 66.8766 36.8848C70.5936 38.077 73.6093 39.4095 81.3238 43.2668C91.7734 48.5267 95.4904 50.0696 102.153 51.7527C108.395 53.3657 112.462 53.9268 119.756 54.0671C130.697 54.3476 139.323 53.0852 149.913 49.5786C153.98 48.2461 160.573 45.3707 163.168 43.8278L164.64 42.9161L162.747 39.8303C161.695 38.1471 160.713 36.7445 160.573 36.7445C160.432 36.7445 158.819 37.516 156.926 38.4277C140.234 46.4928 120.247 48.5968 102.994 44.0382C97.4541 42.5655 92.6851 40.6018 84.3394 36.2536C80.2017 34.1496 75.2924 31.8353 73.3989 31.0638C66.1052 28.1884 57.4088 26.1546 49.2034 25.5936C44.2241 25.2429 43.1721 25.2429 37.7719 25.5936Z" fill="#8C8C8C"/>
<path d="M38.5434 50.8414C26.621 51.9635 19.3974 53.5064 10.701 57.013C7.61524 58.2754 0.742328 61.4313 0.251406 61.9222C0.181274 61.9923 1.02286 63.4651 2.0047 65.2184L3.89826 68.4445L7.89577 66.4808C14.7687 63.1846 23.956 60.4494 32.1614 59.2572C36.8602 58.5559 46.3981 58.3455 50.6762 58.7663C61.1258 59.8884 70.6637 62.9041 80.1315 68.0938C92.1241 74.6862 102.644 78.1227 114.356 79.2448C119.405 79.7357 129.154 79.5253 133.923 78.7538C141.847 77.4915 149.632 75.3174 156.505 72.3718C160.713 70.5484 164.29 68.6549 164.29 68.2341C164.29 67.8834 160.713 62.0625 160.503 62.0625C160.432 62.0625 159.03 62.7638 157.347 63.5352C146.687 68.8653 134.273 71.8108 121.79 71.8108C109.306 71.8108 99.1372 69.3562 87.846 63.5352C75.7132 57.2935 71.856 55.6103 65.2636 53.7168C57.5491 51.4726 45.5565 50.1401 38.5434 50.8414Z" fill="#8C8C8C"/>
<path d="M36.9304 75.5275C26.6912 76.5094 16.7325 78.964 7.68546 82.8914C4.66979 84.2239 0.812542 86.1174 0.251488 86.5382C0.0410924 86.7486 3.82821 92.8501 4.17887 92.8501C4.31913 92.8501 5.09058 92.4994 5.86203 92.0787C12.3142 88.3617 25.7795 84.4343 35.668 83.3823C40.7877 82.8914 51.6581 83.1719 56.1465 84.0135C65.965 85.8369 71.0145 87.7305 84.5499 94.8839C96.6827 101.266 108.184 104.071 122.281 104.001C133.081 104.001 141.848 102.458 152.297 98.671C155.944 97.3385 164.36 93.2709 164.36 92.8501C164.36 92.4293 161.134 87.0993 160.783 86.8188C160.643 86.7486 159.381 87.2396 157.978 87.9409C149.702 92.0787 138.902 95.1644 129.084 96.1463C124.315 96.5671 114.707 96.3567 110.499 95.6554C101.522 94.1125 93.5969 91.3773 85.672 87.0292C73.96 80.577 65.4039 77.6315 53.8322 75.9483C51.3074 75.5977 39.385 75.3172 36.9304 75.5275Z" fill="#8C8C8C"/>
</svg>
